#!OML:ASF H:\Not Pregnant\Project 1\Capture day 1\Session 1\non-pregnant.ASF
:FULLY-SPECIFIED
:DEGREES
1275
root 6.20577 15.4798 40.9736 13.3235 8.97032 361.366
lowerback -2.2854 1.84988 -1.53788
upperback -7.80733 2.30505 -3.43366
thorax -6.77053 1.13402 -2.81564
lowerneck 11.3431 -7.17789 -31.2588
upperneck 3.03526 -15.0868 38.2898
head 4.8554 -8.7355 19.6292
rclavicle -1.07841e-014 3.97569e-015
rhumerus -39.0804 -2.7789 -79.7969
rradius 64.2984
rwrist -6.807
rhand -14.7091 -20.3009
rfingers 7.12502
rthumb 11.4453 -49.9685
lclavicle -1.07841e-014 3.97569e-015
lhumerus -40.9739 -9.13636 79.9081
lradius 73.9471
lwrist 45.8756
lhand -20.386 3.30865
lfingers 7.12502
lthumb 5.96717 33.2046
rfemur -27.5762 3.62776 8.99805
rtibia 64.8683
rfoot -2.92058 0.602964
rtoes -26.4229
lfemur -28.4116 1.90966 -24.1797
ltibia 33.8241
lfoot -15.6315 1.26786
ltoes -24.1256
1276
root 6.26582 15.4815 41.0551 13.2493 9.43826 361.236
lowerback -2.24178 1.71736 -1.49085
upperback -7.72557 2.1343 -3.33164
thorax -6.71483 1.05007 -2.72733
lowerneck 11.4288 -7.17768 -31.2306
upperneck 2.93038 -15.0725 38.2397
head 4.79418 -8.73333 19.5921
rclavicle -4.67641e-014 4.77083e-015
rhumerus -39.0083 -2.83756 -79.8705
rradius 64.4253
rwrist -6.72143
rhand -14.7367 -20.2075
rfingers 7.12502
rthumb 11.4187 -49.8765
lclavicle -4.67641e-014 4.77083e-015
lhumerus -41.0733 -9.38025 79.8131
lradius 74.0984
lwrist 45.9747
lhand -20.4461 3.19916
lfingers 7.12502
lthumb 5.9091 33.0968
rfemur -28.495 3.65165 9.44821
rtibia 65.3683
rfoot -3.93486 1.3269
rtoes -27.0292
lfemur -27.9799 1.76643 -24.1903
ltibia 33.7721
lfoot -15.9387 1.06603
ltoes -23.8882
1277
root 6.32493 15.4818 41.137 13.1795 9.91954 361.075
lowerback -2.21726 1.58911 -1.41643
upperback -7.64685 1.97073 -3.22223
thorax -6.65013 0.968351 -2.64633
lowerneck 11.4967 -7.17858 -31.2137
upperneck 2.86116 -15.0668 38.2033
head 4.75302 -8.73467 19.5663
rclavicle -5.06901e-015 1.82882e-014
rhumerus -38.9395 -2.90174 -79.932
rradius 64.5393
rwrist -6.64539
rhand -14.7963 -20.091
rfingers 7.12502
rthumb 11.3612 -49.7632
lclavicle -5.06901e-015 1.82882e-014
lhumerus -41.1639 -9.60425 79.7377
lradius 74.2426
lwrist 46.0532
lhand -20.5145 3.09747
lfingers 7.12502
lthumb 5.84305 32.9969
rfemur -29.4088 3.66908 9.96065
rtibia 65.7464
rfoot -4.8714 1.83593
rtoes -27.6727
lfemur -27.5879 1.62528 -24.1604
ltibia 33.7718
lfoot -16.2653 0.861662
ltoes -23.6533
1278
root 6.38248 15.4808 41.22 13.1188 10.3899 360.904
lowerback -2.21584 1.47092 -1.3539
upperback -7.57419 1.8211 -3.11019
thorax -6.57857 0.894438 -2.55605
lowerneck 11.5544 -7.18265 -31.2037
upperneck 2.82442 -15.0736 38.1787
head 4.73035 -8.74191 19.5491
rclavicle -4.29375e-014 1.82882e-014
rhumerus -38.8789 -2.97015 -79.9816
rradius 64.6452
rwrist -6.57736
rhand -14.8726 -19.9926
rfingers 7.12502
rthumb 11.2876 -49.6688
lclavicle -4.29375e-014 1.82882e-014
lhumerus -41.2584 -9.8103 79.6771
lradius 74.3924
lwrist 46.1232
lhand -20.589 3.00832
lfingers 7.12502
lthumb 5.7712 32.9097
rfemur -30.3321 3.70344 10.5093
rtibia 66.0161
rfoot -5.73169 2.1221
rtoes -28.2588
lfemur -27.2285 1.49252 -24.1103
ltibia 33.8092
lfoot -16.605 0.667272
ltoes -23.4507
1279
root 6.4384 15.4786 41.3035 13.0757 10.8413 360.744
lowerback -2.2363 1.36272 -1.32783
upperback -7.50731 1.68464 -2.99903
thorax -6.50118 0.829264 -2.44655
lowerneck 11.61 -7.19172 -31.2026
upperneck 2.80693 -15.0945 38.1636
head 4.72157 -8.75672 19.5386
rclavicle 6.31141e-015 -1.59028e-015
rhumerus -38.8183 -3.03874 -80.0163
rradius 64.7408
rwrist -6.51024
rhand -14.9643 -19.8974
rfingers 7.12502
rthumb 11.1992 -49.5785
lclavicle 6.31141e-015 -1.59028e-015
lhumerus -41.3522 -9.99381 79.6329
lradius 74.5544
lwrist 46.1901
lhand -20.6683 2.92225
lfingers 7.12502
lthumb 5.69464 32.8257
rfemur -31.2766 3.75944 11.0653
rtibia 66.1853
rfoot -6.51807 2.19147
rtoes -28.7533
lfemur -26.9042 1.37545 -24.0647
ltibia 33.8735
lfoot -16.9458 0.473737
ltoes -23.2686
1280
root 6.49302 15.4753 41.3881 13.0391 11.2813 360.594
lowerback -2.28359 1.2643 -1.33046
upperback -7.43441 1.56159 -2.88967
thorax -6.40197 0.772446 -2.32271
lowerneck 11.6781 -7.20869 -31.2005
upperneck 2.78232 -15.1297 38.1549
head 4.71528 -8.78016 19.5299
rclavicle -1.66482e-014 -8.74653e-015
rhumerus -38.7517 -3.12131 -80.0319
rradius 64.8385
rwrist -6.43924
rhand -15.0457 -19.8249
rfingers 7.12502
rthumb 11.1207 -49.5102
lclavicle -1.66482e-014 -8.74653e-015
lhumerus -41.4203 -10.152 79.6051
lradius 74.7167
lwrist 46.2538
lhand -20.7501 2.83355
lfingers 7.12502
lthumb 5.61562 32.7391
rfemur -32.2192 3.83221 11.6281
rtibia 66.252
rfoot -7.25302 2.05562
rtoes -29.1331
lfemur -26.5932 1.27722 -24.0223
ltibia 33.9527
lfoot -17.2859 0.271176
ltoes -23.1178
1281
root 6.54682 15.4713 41.4734 13.0079 11.7117 360.444
lowerback -2.34044 1.17692 -1.34106
upperback -7.36468 1.4532 -2.78392
thorax -6.30008 0.72317 -2.19893
lowerneck 11.7823 -7.23061 -31.1912
upperneck 2.73594 -15.1764 38.1494
head 4.7005 -8.8127 19.5208
rclavicle -2.91716e-014 -1.27222e-014
rhumerus -38.6929 -3.21467 -80.032
rradius 64.9446
rwrist -6.3648
rhand -15.1268 -19.7587
rfingers 7.12502
rthumb 11.0425 -49.4482
lclavicle -2.91716e-014 -1.27222e-014
lhumerus -41.4677 -10.2889 79.5919
lradius 74.8733
lwrist 46.3113
lhand -20.8474 2.77327
lfingers 7.12502
lthumb 5.52172 32.6813
rfemur -33.1566 3.92478 12.202
rtibia 66.2103
rfoot -7.94461 1.73092
rtoes -29.4306
lfemur -26.2927 1.1988 -23.9741
ltibia 34.0405
lfoot -17.622 0.0559402
ltoes -22.9866
